<?xml version="1.0" standalone="no"?>
<!DOCTYPE svg PUBLIC "-//W3C//DTD SVG 20010904//EN"
 "http://www.w3.org/TR/2001/REC-SVG-20010904/DTD/svg10.dtd">
<svg version="1.0" xmlns="http://www.w3.org/2000/svg"
 width="48" height="63" viewBox="0 0 100.000000 100.000000"
 preserveAspectRatio="xMidYMid meet">

<g transform="translate(0.000000,100.000000) scale(0.100000,-0.100000)"
fill="#000000" stroke="none">
<path d="M553 898 c-27 -34 1 -148 35 -148 26 0 42 -20 42 -51 0 -38 -11 -42
-61 -19 -67 30 -102 26 -150 -17 -57 -51 -180 -241 -264 -406 -67 -131 -69
-137 -52 -154 17 -17 23 -15 154 51 159 82 326 190 394 255 56 54 62 86 29
160 -23 50 -19 61 19 61 31 0 51 -16 51 -42 0 -36 125 -63 151 -32 6 8 8 21 4
31 -5 10 -7 25 -6 34 4 30 -57 63 -116 64 -29 0 -53 1 -53 3 0 3 98 48 123 56
9 3 21 16 27 30 5 13 13 27 18 30 13 8 13 78 0 93 -11 14 -86 15 -94 1 -3 -5
-17 -13 -30 -18 -14 -6 -27 -18 -30 -27 -8 -25 -53 -123 -56 -123 -2 0 -3 24
-3 53 -1 63 -35 122 -66 114 -11 -3 -22 -1 -25 4 -8 13 -30 11 -41 -3z m39
-23 c-3 -20 -3 -20 11 -1 16 22 47 16 47 -9 0 -8 4 -15 9 -15 6 0 13 -20 16
-44 5 -33 2 -54 -13 -87 -18 -39 -20 -41 -21 -17 -1 29 -24 58 -46 58 -21 0
-28 19 -13 37 11 15 11 16 -4 10 -21 -8 -34 9 -19 27 7 9 7 16 -1 24 -15 15
-2 44 19 40 12 -2 17 -11 15 -23z m305 7 c4 -8 1 -18 -5 -20 -8 -2 -8 -9 1
-23 10 -17 9 -22 -5 -33 -10 -7 -18 -18 -18 -23 0 -6 -7 -16 -15 -23 -13 -11
-18 -10 -30 6 -13 18 -14 18 -9 -3 5 -18 -2 -25 -39 -41 -24 -11 -62 -36 -84
-56 -68 -61 -88 -41 -27 26 19 22 49 69 65 104 33 70 49 84 77 63 15 -13 16
-12 4 3 -20 25 -8 36 38 36 29 1 43 -4 47 -16z m-354 -211 c63 -24 137 -119
137 -176 0 -25 -63 -105 -83 -105 -6 0 -25 12 -41 28 l-31 27 30 -33 29 -33
-29 -24 c-65 -52 -71 -53 -118 -9 l-42 39 39 -42 c22 -24 38 -44 35 -46 -10
-10 -220 -128 -278 -156 -79 -40 -92 -32 -57 38 15 28 29 51 33 51 3 0 16 -8
27 -17 17 -14 16 -12 -2 9 l-24 26 64 111 c34 61 71 121 80 133 l17 23 28 -25
28 -25 -24 27 c-23 26 -23 30 -10 55 8 15 37 51 65 80 52 55 76 63 127 44z
m306 -9 c4 -5 14 -11 24 -15 9 -3 17 -13 17 -21 0 -8 -8 -20 -17 -26 -17 -11
-17 -11 0 -6 22 7 35 -20 18 -37 -9 -9 -16 -9 -30 0 -13 8 -22 8 -29 1 -15
-15 -32 -1 -25 20 6 15 5 15 -10 4 -18 -15 -37 -8 -37 13 0 22 -29 45 -58 46
-25 1 -24 2 13 20 40 20 121 20 134 1z"/>
<path d="M430 577 c0 -2 15 -16 33 -33 l32 -29 -29 33 c-28 30 -36 37 -36 29z"/>
<path d="M575 550 c10 -11 20 -20 23 -20 3 0 -3 9 -13 20 -10 11 -20 20 -23
20 -3 0 3 -9 13 -20z"/>
<path d="M295 370 c10 -11 20 -20 23 -20 3 0 -3 9 -13 20 -10 11 -20 20 -23
20 -3 0 3 -9 13 -20z"/>
<path d="M275 260 c10 -11 20 -20 23 -20 3 0 -3 9 -13 20 -10 11 -20 20 -23
20 -3 0 3 -9 13 -20z"/>
</g>
</svg>
